<svg width="50" height="55" viewBox="0 0 50 55" fill="none" xmlns="http://www.w3.org/2000/svg">
<path d="M4.54877 49.502L0 0H50L45.4452 49.4941L24.9696 55L4.54877 49.502Z" fill="#1572B6"/>
<path d="M25 50.7927L41.5465 46.3436L45.439 4.04849H25V50.7927Z" fill="#33A9DC"/>
<path d="M25 21.9823H33.2833L33.8545 15.7654H25V9.69379H25.0222H40.6959L40.546 11.3222L39.0088 28.0539H25V21.9823Z" fill="white"/>
<path d="M25.0385 37.7497L25.0101 37.7575L18.0391 35.9308L17.5936 31.0889H14.2053H11.3091L12.1861 40.6214L25.0081 44.0746L25.0385 44.0668V37.7497Z" fill="#EBEBEB"/>
<path d="M32.7507 27.7968L31.9973 35.9269L25.0162 37.7537V44.0708L37.8483 40.6215L37.9435 39.5962L39.0311 27.7968H32.7507Z" fill="white"/>
<path d="M25.0222 9.69379V13.4653V15.7498V15.7655H9.9218H9.90155L9.77598 14.4003L9.49042 11.3222L9.34055 9.69379H25.0222Z" fill="#EBEBEB"/>
<path d="M25 21.9824V25.754V28.0385V28.0542H18.1363H18.1161L17.9905 26.689L17.707 23.6109L17.5571 21.9824H25Z" fill="#EBEBEB"/>
</svg>
