<svg width="50" height="55" viewBox="0 0 50 55" fill="none" xmlns="http://www.w3.org/2000/svg">
<path d="M4.55043 49.502L0 0H50L45.4435 49.4941L24.9696 55L4.55043 49.502Z" fill="#E44F26"/>
<path d="M25 50.7926L41.5452 46.3435L45.4374 4.04846H25V50.7926Z" fill="#F1662A"/>
<path d="M25 22.4067H16.7173L16.1462 16.1897H25V10.1181H24.9777H9.30536L9.45522 11.7485L10.9923 28.4784H25V22.4067Z" fill="#EBEBEB"/>
<path d="M25 38.1741L24.9716 38.1819L18.0012 36.3571L17.5557 31.5152H14.1676H11.2717L12.1486 41.0458L24.9716 44.4991L25 44.4912V38.1741Z" fill="#EBEBEB"/>
<path d="M24.9777 22.4068V28.4783H32.6852L31.9602 36.3531L24.9777 38.1798V44.4969L37.8108 41.0457L37.904 40.0204L39.3742 24.0371L39.5281 22.4068H37.8412H24.9777Z" fill="white"/>
<path d="M24.9777 10.1181V13.8895V16.1759V16.1897H40.0769H40.0971L40.2227 14.8265L40.5082 11.7485L40.6581 10.1181H24.9777Z" fill="white"/>
</svg>
