<svg width="20" height="21" viewBox="0 0 20 21" fill="none" xmlns="http://www.w3.org/2000/svg">
<path d="M14.586 0.398499H5.414C3.97861 0.400087 2.60246 0.970999 1.58748 1.98598C0.5725 3.00095 0.00158812 4.3771 0 5.8125L0 14.985C0.00172043 16.4203 0.572691 17.7963 1.58765 18.8112C2.60262 19.8261 3.97869 20.3969 5.414 20.3985H14.5865C16.0217 20.3968 17.3977 19.8259 18.4125 18.811C19.4274 17.7962 19.9983 16.4202 20 14.985V5.8125C19.9984 4.3771 19.4275 3.00095 18.4125 1.98598C17.3975 0.970999 16.0214 0.400087 14.586 0.398499ZM18.8275 14.985C18.8262 16.1095 18.3789 17.1875 17.5837 17.9826C16.7885 18.7776 15.7105 19.2248 14.586 19.226H5.414C4.28954 19.2248 3.21146 18.7776 2.4163 17.9826C1.62114 17.1875 1.17382 16.1095 1.1725 14.985V5.8125C1.17369 4.68795 1.62094 3.6098 2.41612 2.81462C3.2113 2.01944 4.28945 1.57219 5.414 1.571H14.5865C15.711 1.57232 16.789 2.01963 17.5841 2.8148C18.3791 3.60996 18.8263 4.68804 18.8275 5.8125V14.985Z" fill="#DAA520"/>
<path d="M10 4.92999C8.91841 4.9297 7.86098 5.25017 6.96149 5.85087C6.062 6.45158 5.36086 7.30554 4.94673 8.30475C4.5326 9.30396 4.42409 10.4035 4.63492 11.4644C4.84576 12.5253 5.36647 13.4998 6.13119 14.2648C6.89591 15.0297 7.87031 15.5507 8.93113 15.7618C9.99196 15.9729 11.0916 15.8647 12.0909 15.4509C13.0902 15.037 13.9444 14.3361 14.5453 13.4368C15.1463 12.5375 15.467 11.4801 15.467 10.3985C15.4655 8.9489 14.889 7.55912 13.8641 6.53396C12.8393 5.50881 11.4496 4.93198 10 4.92999ZM10 14.6945C9.15037 14.6945 8.31978 14.4425 7.6133 13.9705C6.90683 13.4984 6.3562 12.8275 6.03105 12.0425C5.70589 11.2575 5.62082 10.3937 5.78658 9.56038C5.95234 8.72704 6.3615 7.96157 6.9623 7.36076C7.56311 6.75996 8.32859 6.3508 9.16193 6.18504C9.99527 6.01928 10.8591 6.10435 11.644 6.42951C12.429 6.75466 13.1 7.30529 13.572 8.01176C14.0441 8.71824 14.296 9.54882 14.296 10.3985C14.295 11.5375 13.842 12.6296 13.0366 13.4351C12.2312 14.2405 11.1391 14.6934 10 14.6945Z" fill="#DAA520"/>
<path d="M15.599 2.98749C15.2793 2.98759 14.9668 3.08251 14.7011 3.26025C14.4354 3.43799 14.2283 3.69056 14.1062 3.986C13.984 4.28144 13.9522 4.60647 14.0148 4.91998C14.0774 5.23349 14.2316 5.52138 14.4579 5.74723C14.6842 5.97308 14.9724 6.12675 15.286 6.18878C15.5996 6.25081 15.9246 6.21842 16.2198 6.09571C16.515 5.973 16.7672 5.76548 16.9445 5.49942C17.1217 5.23335 17.2161 4.92069 17.2156 4.60099C17.2145 4.17287 17.0438 3.76263 16.7408 3.46018C16.4377 3.15773 16.0272 2.98775 15.599 2.98749ZM15.599 5.04699C15.5113 5.04699 15.4256 5.02098 15.3526 4.97224C15.2797 4.92351 15.2229 4.85425 15.1893 4.77321C15.1557 4.69217 15.1469 4.603 15.1641 4.51696C15.1812 4.43093 15.2234 4.35191 15.2854 4.28989C15.3475 4.22786 15.4265 4.18562 15.5125 4.16851C15.5986 4.1514 15.6877 4.16018 15.7688 4.19375C15.8498 4.22731 15.9191 4.28416 15.9678 4.35709C16.0165 4.43002 16.0426 4.51577 16.0426 4.60349C16.0424 4.72107 15.9957 4.8338 15.9125 4.91694C15.8294 5.00009 15.7166 5.04685 15.599 5.04699Z" fill="#DAA520"/>
</svg>
