<svg width="55" height="55" viewBox="0 0 55 55" fill="none" xmlns="http://www.w3.org/2000/svg">
<path d="M55 0H0L5.15612 49.4015L27.4972 55L49.8383 49.4015L55 0Z" fill="#E6A329"/>
<path d="M27.4972 4.02496V50.8138L45.5986 46.283L50.0021 4.02496H27.4972Z" fill="#F1BF22"/>
<path d="M41.8979 10.0856H14.0661L12.1276 28.5801L12.1675 28.4651H35.8121L35.042 36.2903L27.4979 38.2078L19.8425 36.2593L19.3839 31.5231H12.4349L13.4262 40.9869L27.4979 44.5163L41.5759 40.9869L43.5144 22.4107H18.4206L18.7427 16.2216H36.153L36.4135 19.7677H43.4213L41.8979 10.0856Z" fill="white"/>
<path d="M27.5035 10.0856H14.0661L12.1276 28.5801L12.1675 28.465H27.5028V22.4317H19.3993L19.7214 16.2426H27.5035V10.0856ZM19.3993 31.5262H12.4342L13.4255 40.985L27.4972 44.5107V38.2164L19.8418 36.263L19.3993 31.5262Z" fill="#EBEBEB"/>
</svg>
