<svg width="20" height="21" viewBox="0 0 20 21" fill="none" xmlns="http://www.w3.org/2000/svg">
<path d="M6.25 16.922H3.516V8.094H6.25V16.922ZM6.523 5.281C6.523 4.96455 6.42916 4.6552 6.25335 4.39209C6.07754 4.12897 5.82766 3.92389 5.53529 3.80279C5.24293 3.68169 4.92123 3.65001 4.61086 3.71174C4.30049 3.77348 4.01539 3.92586 3.79163 4.14963C3.56787 4.37339 3.41548 4.65848 3.35374 4.96885C3.29201 5.27922 3.32369 5.60093 3.44479 5.89329C3.56589 6.18565 3.77097 6.43554 4.03409 6.61135C4.29721 6.78716 4.60655 6.881 4.923 6.881C5.34735 6.881 5.75431 6.71243 6.05437 6.41237C6.35443 6.11231 6.523 5.70535 6.523 5.281ZM16.4845 12.065C16.4845 9.695 15.9845 7.9375 13.2155 7.9375C12.7017 7.90776 12.1895 8.01833 11.7337 8.25737C11.2779 8.49641 10.8957 8.85491 10.628 9.2945H10.625V8.0945H7.969V16.922H10.625V12.5385C10.625 11.3885 10.917 10.2785 12.34 10.2785C13.7435 10.2785 13.79 11.591 13.79 12.6115V16.922H16.4855L16.4845 12.065ZM20 18.055V2.7425C19.9993 2.12112 19.7522 1.52538 19.3129 1.08595C18.8736 0.64652 18.2779 0.399293 17.6565 0.398499L2.344 0.398499C1.72254 0.39916 1.12671 0.646329 0.687273 1.08577C0.247831 1.52521 0.000661766 2.12103 0 2.7425L0 18.055C0.00079408 18.6764 0.248021 19.2721 0.687449 19.7114C1.12688 20.1507 1.72262 20.3978 2.344 20.3985H17.6565C18.2778 20.3977 18.8734 20.1505 19.3127 19.7112C19.752 19.2719 19.9992 18.6763 20 18.055ZM17.6565 1.961C17.8637 1.96113 18.0624 2.04351 18.209 2.19004C18.3555 2.33657 18.4379 2.53527 18.438 2.7425V18.055C18.4379 18.2621 18.3556 18.4608 18.2091 18.6073C18.0627 18.7538 17.8641 18.8362 17.657 18.8365H2.344C2.13686 18.8364 1.93824 18.7541 1.79172 18.6076C1.6452 18.4612 1.56276 18.2626 1.5625 18.0555V2.7425C1.56263 2.53527 1.64501 2.33657 1.79154 2.19004C1.93807 2.04351 2.13677 1.96113 2.344 1.961H17.6565Z" fill="#DAA520"/>
</svg>
