<svg width="305" height="31" viewBox="0 0 305 31" fill="none" xmlns="http://www.w3.org/2000/svg">
<path d="M18.816 9.392V26H16.632V13.616L11.112 26H9.576L4.032 13.592V26H1.848V9.392H4.2L10.344 23.12L16.488 9.392H18.816ZM30.1039 26.168C28.5519 26.168 27.1359 25.808 25.8559 25.088C24.5759 24.352 23.5599 23.336 22.8079 22.04C22.0719 20.728 21.7039 19.256 21.7039 17.624C21.7039 15.992 22.0719 14.528 22.8079 13.232C23.5599 11.92 24.5759 10.904 25.8559 10.184C27.1359 9.448 28.5519 9.08 30.1039 9.08C31.6719 9.08 33.0959 9.448 34.3759 10.184C35.6559 10.904 36.6639 11.912 37.3999 13.208C38.1359 14.504 38.5039 15.976 38.5039 17.624C38.5039 19.272 38.1359 20.744 37.3999 22.04C36.6639 23.336 35.6559 24.352 34.3759 25.088C33.0959 25.808 31.6719 26.168 30.1039 26.168ZM30.1039 24.272C31.2719 24.272 32.3199 24 33.2479 23.456C34.1919 22.912 34.9279 22.136 35.4559 21.128C35.9999 20.12 36.2719 18.952 36.2719 17.624C36.2719 16.28 35.9999 15.112 35.4559 14.12C34.9279 13.112 34.1999 12.336 33.2719 11.792C32.3439 11.248 31.2879 10.976 30.1039 10.976C28.9199 10.976 27.8639 11.248 26.9359 11.792C26.0079 12.336 25.2719 13.112 24.7279 14.12C24.1999 15.112 23.9359 16.28 23.9359 17.624C23.9359 18.952 24.1999 20.12 24.7279 21.128C25.2719 22.136 26.0079 22.912 26.9359 23.456C27.8799 24 28.9359 24.272 30.1039 24.272Z" fill="white"/>
<line x1="46" y1="4" x2="46" y2="31" stroke="#DAA520" stroke-width="2"/>
<path d="M60.304 9.272V11.048H53.032V16.688H58.936V18.464H53.032V26H50.848V9.272H60.304ZM71.7498 26L67.7658 19.16H65.1258V26H62.9418V9.272H68.3418C69.6058 9.272 70.6698 9.488 71.5338 9.92C72.4138 10.352 73.0698 10.936 73.5018 11.672C73.9338 12.408 74.1498 13.248 74.1498 14.192C74.1498 15.344 73.8138 16.36 73.1418 17.24C72.4858 18.12 71.4938 18.704 70.1658 18.992L74.3658 26H71.7498ZM65.1258 17.408H68.3418C69.5258 17.408 70.4138 17.12 71.0058 16.544C71.5978 15.952 71.8938 15.168 71.8938 14.192C71.8938 13.2 71.5978 12.432 71.0058 11.888C70.4298 11.344 69.5418 11.072 68.3418 11.072H65.1258V17.408ZM85.1273 26.168C83.5753 26.168 82.1593 25.808 80.8793 25.088C79.5993 24.352 78.5833 23.336 77.8313 22.04C77.0953 20.728 76.7273 19.256 76.7273 17.624C76.7273 15.992 77.0953 14.528 77.8313 13.232C78.5833 11.92 79.5993 10.904 80.8793 10.184C82.1593 9.448 83.5753 9.08 85.1273 9.08C86.6953 9.08 88.1193 9.448 89.3993 10.184C90.6793 10.904 91.6873 11.912 92.4233 13.208C93.1593 14.504 93.5273 15.976 93.5273 17.624C93.5273 19.272 93.1593 20.744 92.4233 22.04C91.6873 23.336 90.6793 24.352 89.3993 25.088C88.1193 25.808 86.6953 26.168 85.1273 26.168ZM85.1273 24.272C86.2953 24.272 87.3433 24 88.2713 23.456C89.2153 22.912 89.9513 22.136 90.4793 21.128C91.0233 20.12 91.2953 18.952 91.2953 17.624C91.2953 16.28 91.0233 15.112 90.4793 14.12C89.9513 13.112 89.2233 12.336 88.2953 11.792C87.3673 11.248 86.3113 10.976 85.1273 10.976C83.9433 10.976 82.8873 11.248 81.9593 11.792C81.0313 12.336 80.2953 13.112 79.7513 14.12C79.2233 15.112 78.9593 16.28 78.9593 17.624C78.9593 18.952 79.2233 20.12 79.7513 21.128C80.2953 22.136 81.0313 22.912 81.9593 23.456C82.9033 24 83.9593 24.272 85.1273 24.272ZM109.562 26H107.379L98.5945 12.68V26H96.4105V9.248H98.5945L107.379 22.544V9.248H109.562V26ZM123.582 9.272V11.048H119.022V26H116.838V11.048H112.254V9.272H123.582ZM128.454 11.048V16.64H134.55V18.44H128.454V24.2H135.27V26H126.27V9.248H135.27V11.048H128.454ZM151.727 26H149.543L140.759 12.68V26H138.575V9.248H140.759L149.543 22.544V9.248H151.727V26ZM160.658 9.272C162.482 9.272 164.058 9.616 165.386 10.304C166.73 10.976 167.754 11.944 168.458 13.208C169.178 14.472 169.538 15.96 169.538 17.672C169.538 19.384 169.178 20.872 168.458 22.136C167.754 23.384 166.73 24.344 165.386 25.016C164.058 25.672 162.482 26 160.658 26H155.45V9.272H160.658ZM160.658 24.2C162.818 24.2 164.466 23.632 165.602 22.496C166.738 21.344 167.306 19.736 167.306 17.672C167.306 15.592 166.73 13.968 165.578 12.8C164.442 11.632 162.802 11.048 160.658 11.048H157.634V24.2H160.658ZM184.025 9.272C185.849 9.272 187.425 9.616 188.753 10.304C190.097 10.976 191.121 11.944 191.825 13.208C192.545 14.472 192.905 15.96 192.905 17.672C192.905 19.384 192.545 20.872 191.825 22.136C191.121 23.384 190.097 24.344 188.753 25.016C187.425 25.672 185.849 26 184.025 26H178.817V9.272H184.025ZM184.025 24.2C186.185 24.2 187.833 23.632 188.969 22.496C190.105 21.344 190.673 19.736 190.673 17.672C190.673 15.592 190.097 13.968 188.945 12.8C187.809 11.632 186.169 11.048 184.025 11.048H181.001V24.2H184.025ZM197.97 11.048V16.64H204.066V18.44H197.97V24.2H204.786V26H195.786V9.248H204.786V11.048H197.97ZM221.914 9.272L215.602 26H213.082L206.77 9.272H209.098L214.354 23.696L219.61 9.272H221.914ZM226.493 11.048V16.64H232.589V18.44H226.493V24.2H233.309V26H224.309V9.248H233.309V11.048H226.493ZM238.798 24.224H244.654V26H236.614V9.272H238.798V24.224ZM254.557 26.168C253.005 26.168 251.589 25.808 250.309 25.088C249.029 24.352 248.013 23.336 247.261 22.04C246.525 20.728 246.157 19.256 246.157 17.624C246.157 15.992 246.525 14.528 247.261 13.232C248.013 11.92 249.029 10.904 250.309 10.184C251.589 9.448 253.005 9.08 254.557 9.08C256.125 9.08 257.549 9.448 258.829 10.184C260.109 10.904 261.117 11.912 261.853 13.208C262.589 14.504 262.957 15.976 262.957 17.624C262.957 19.272 262.589 20.744 261.853 22.04C261.117 23.336 260.109 24.352 258.829 25.088C257.549 25.808 256.125 26.168 254.557 26.168ZM254.557 24.272C255.725 24.272 256.773 24 257.701 23.456C258.645 22.912 259.381 22.136 259.909 21.128C260.453 20.12 260.725 18.952 260.725 17.624C260.725 16.28 260.453 15.112 259.909 14.12C259.381 13.112 258.653 12.336 257.725 11.792C256.797 11.248 255.741 10.976 254.557 10.976C253.373 10.976 252.317 11.248 251.389 11.792C250.461 12.336 249.725 13.112 249.181 14.12C248.653 15.112 248.389 16.28 248.389 17.624C248.389 18.952 248.653 20.12 249.181 21.128C249.725 22.136 250.461 22.912 251.389 23.456C252.333 24 253.389 24.272 254.557 24.272ZM277.024 14.168C277.024 15.56 276.544 16.72 275.584 17.648C274.64 18.56 273.192 19.016 271.24 19.016H268.024V26H265.84V9.272H271.24C273.128 9.272 274.56 9.728 275.536 10.64C276.528 11.552 277.024 12.728 277.024 14.168ZM271.24 17.216C272.456 17.216 273.352 16.952 273.928 16.424C274.504 15.896 274.792 15.144 274.792 14.168C274.792 12.104 273.608 11.072 271.24 11.072H268.024V17.216H271.24ZM281.923 11.048V16.64H288.019V18.44H281.923V24.2H288.739V26H279.739V9.248H288.739V11.048H281.923ZM300.851 26L296.867 19.16H294.227V26H292.043V9.272H297.443C298.707 9.272 299.771 9.488 300.635 9.92C301.515 10.352 302.171 10.936 302.603 11.672C303.035 12.408 303.251 13.248 303.251 14.192C303.251 15.344 302.915 16.36 302.243 17.24C301.587 18.12 300.595 18.704 299.267 18.992L303.467 26H300.851ZM294.227 17.408H297.443C298.627 17.408 299.515 17.12 300.107 16.544C300.699 15.952 300.995 15.168 300.995 14.192C300.995 13.2 300.699 12.432 300.107 11.888C299.531 11.344 298.643 11.072 297.443 11.072H294.227V17.408Z" fill="white"/>
</svg>
